<?xml version="1.0" encoding="UTF-8"?>
<svg id="Layer_1" xmlns="http://www.w3.org/2000/svg" viewBox="0 0 111.1 35.15">
  <g>
    <path d="M12.12,12.59c-.3.09-.68.15-1.13.16-.45,0-.92,0-1.39-.04-.47-.04-.92-.08-1.33-.14-.42-.06-.74-.11-.96-.17.34,1.17.52,2.41.55,3.72s-.09,2.6-.37,3.85c-.27,1.26-.7,2.45-1.27,3.57-.58,1.12-1.3,2.07-2.17,2.85-.25.23-.51.36-.81.41-.29.05-.59,0-.89-.16l-.96-.37c-.62-.28-1.02-.76-1.19-1.44-.23-1.02-.25-2.09-.08-3.2s.43-2.23.79-3.34c.36-1.11.76-2.2,1.19-3.26.43-1.06.8-2.03,1.1-2.92l-.76-.65c.08-.17.17-.28.27-.33.1-.05.22-.08.34-.1.12-.02.25-.03.37-.03s.24-.04.35-.11c1.09-2.11,2.19-4.05,3.3-5.79,1.1-1.75,2.38-3.3,3.84-4.66.3-.25.58-.39.85-.42.26-.04.51,0,.74.1.23.1.44.25.65.44.21.19.42.39.62.59-.26.28-.51.55-.75.79-.24.25-.46.5-.67.76-.91,1.21-1.77,2.48-2.59,3.81s-1.64,2.84-2.45,4.52c.38.06.78.12,1.2.2s.86.14,1.3.2c.44.06.88.08,1.32.08s.85-.06,1.25-.17l-.25,1.25ZM2.94,22.59c-.06.21-.11.46-.16.75-.05.29-.08.56-.1.81-.02.25,0,.44.04.59.05.15.15.19.3.11.47-.23.91-.6,1.3-1.13s.75-1.13,1.05-1.81c.3-.68.56-1.42.76-2.22.21-.8.35-1.6.44-2.39s.1-1.55.06-2.27c-.05-.72-.17-1.35-.38-1.9-.72,1.53-1.35,3.07-1.91,4.63-.56,1.56-1.02,3.17-1.4,4.83Z"/>
    <path d="M19.23,12.65c-.43.55-.89,1.1-1.36,1.66-.47.56-.93,1.08-1.37,1.56-.44.48-.85.91-1.22,1.27s-.66.65-.86.84c-.23.21-.49.35-.78.42-.29.08-.59.09-.88.04-.29-.05-.59-.15-.88-.3s-.55-.36-.78-.62c-.13-.15-.24-.33-.31-.55-.08-.22-.13-.44-.17-.67-.08-.49-.03-1.05.14-1.69.17-.63.4-1.26.69-1.88.29-.62.61-1.22.95-1.78.34-.57.65-1.02.93-1.36.34-.38.76-.55,1.27-.51.51.04.93.27,1.27.71.13.23.16.45.08.68-.17.53-.39,1.06-.65,1.59-.26.53-.54,1.06-.82,1.59-.28.53-.55,1.06-.79,1.59-.25.53-.42,1.06-.54,1.59.49-.21.97-.49,1.43-.85.46-.36.91-.76,1.35-1.22.43-.45.86-.93,1.27-1.43.42-.5.82-.99,1.22-1.46l.79.79ZM14.89,7.12c0-.28.03-.61.08-.99.06-.38.16-.72.3-1.03s.33-.55.58-.72c.25-.17.56-.18.93-.03.36.15.64.3.85.44.21.14.34.29.41.45.07.16.07.35,0,.57-.07.22-.18.48-.35.78-.09.15-.17.27-.21.35-.05.08-.09.17-.13.25-.04.08-.08.17-.14.27-.06.09-.12.22-.2.37-.15.3-.28.47-.4.51-.11.04-.35-.03-.71-.2-.25-.09-.48-.2-.69-.31-.22-.11-.33-.35-.33-.71Z"/>
    <path d="M30.55,14.69c-.77.21-1.52.47-2.24.78-.72.31-1.42.64-2.1.98l-2.04,1.02c-.68.34-1.37.64-2.07.91-1.08.43-2.07.28-2.97-.45-.21-.19-.43-.37-.67-.54s-.47-.36-.69-.57c-.7-.57-.94-1.34-.74-2.32.25-1.02.65-1.98,1.22-2.87s1.24-1.7,2.02-2.41c.78-.71,1.64-1.3,2.56-1.78.92-.48,1.86-.82,2.8-1.01.87-.15,1.61-.04,2.24.34.62.38,1.18.9,1.67,1.56.04.06.06.13.06.21s.02.2.06.35c-.21-.08-.4-.16-.57-.24s-.34-.16-.51-.23c-.17-.07-.34-.11-.51-.13-.17-.02-.37,0-.59.08-1.79.62-3.27,1.58-4.43,2.88s-2.1,2.87-2.82,4.72c.87-.25,1.69-.53,2.48-.86.78-.33,1.57-.66,2.36-.98.7-.28,1.4-.54,2.11-.76s1.44-.39,2.2-.48c.79-.09,1.5,0,2.12.3.62.29,1.18.72,1.67,1.29.34.43.54.9.59,1.39.06.49.02.98-.11,1.47-.3,1.13-.75,2.31-1.33,3.54-.59,1.23-1.27,2.44-2.05,3.64-.78,1.2-1.66,2.36-2.62,3.48-.96,1.12-1.97,2.15-3.03,3.07-1.06.92-2.15,1.73-3.29,2.42-1.13.69-2.26,1.19-3.37,1.51-.64.19-1.24.21-1.78.07-.55-.14-1.07-.39-1.56-.75-.32-.23-.54-.49-.67-.79-.12-.3-.17-.64-.16-1.02.02-.64.18-1.3.48-1.97.3-.67.67-1.31,1.1-1.93.43-.61.9-1.19,1.39-1.73.49-.54.94-1,1.36-1.37,2.36-2.23,5.06-3.98,8.1-5.27.28-.13.57-.24.86-.33.29-.08.59-.17.89-.27.11-.04.31-.09.6-.17.28-.08.59-.15.92-.21.33-.07.66-.12.98-.16.32-.04.58-.03.76.03.11-.26.25-.58.4-.93.15-.36.29-.73.41-1.1.12-.38.21-.75.27-1.1s.04-.66-.04-.91c-.08-.25-.26-.41-.54-.5-.27-.08-.68-.05-1.2.1ZM29.02,20.55c-2.23.85-4.29,1.92-6.19,3.21-1.9,1.29-3.61,2.85-5.14,4.66-.32.38-.64.81-.96,1.29-.32.48-.59.96-.81,1.44-.22.48-.36.93-.44,1.34-.08.42-.03.75.14.99s.47.37.91.38c.43,0,1.06-.17,1.87-.52,1.21-.53,2.42-1.29,3.64-2.29s2.36-2.11,3.44-3.33,2.06-2.47,2.96-3.77c.9-1.29,1.65-2.49,2.25-3.58l.23-.45-1.9.62Z"/>
    <path d="M37.18,17.32c.74-.23,1.5-.62,2.29-1.19s1.56-1.19,2.29-1.88c.74-.69,1.42-1.38,2.04-2.08s1.13-1.29,1.53-1.78c.21.09.42.18.65.27.23.08.42.19.58.31.16.12.27.27.33.45s.03.41-.08.69c-.32.79-.63,1.55-.94,2.28-.3.73-.47,1.53-.51,2.42.59-.25,1.16-.58,1.73-1.01s1.08-.87,1.54-1.35c.46-.47.87-.93,1.23-1.37.36-.44.64-.83.85-1.15.11.09.25.21.41.34.16.13.31.25.44.34-.21.38-.48.8-.81,1.26-.33.46-.68.92-1.06,1.36-.38.44-.77.86-1.18,1.26-.41.4-.78.72-1.12.96-.32.23-.64.39-.95.5-.31.1-.66.05-1.03-.16-.43-.23-.76-.44-.99-.64s-.39-.42-.48-.68c-.09-.25-.12-.57-.08-.95.04-.38.11-.87.23-1.47-.38.38-.78.77-1.22,1.19-.43.42-.89.82-1.36,1.22-.47.4-.95.77-1.44,1.12-.49.35-.97.64-1.44.86-.79.34-1.55.26-2.27-.23-.11-.09-.24-.17-.38-.24-.14-.07-.26-.16-.35-.27-.34-.38-.55-.84-.62-1.39-.08-.55-.06-1.14.06-1.77.11-.63.3-1.28.57-1.95.26-.67.56-1.31.89-1.91.33-.6.67-1.16,1.03-1.67.36-.51.69-.92.99-1.22.43-.4.9-.56,1.4-.48.5.08.9.36,1.2.85.09.19.11.35.04.5-.07.14-.15.29-.24.44-.4.53-.81,1.13-1.23,1.81-.42.68-.82,1.39-1.18,2.12-.36.74-.66,1.47-.91,2.21-.25.74-.4,1.43-.45,2.07Z"/>
    <path d="M64.82,12.76c-.43.36-.87.73-1.32,1.12-.44.39-.89.74-1.33,1.06-.44.32-.86.59-1.26.82-.4.23-.76.37-1.08.42-.34.06-.66.04-.95-.06-.29-.09-.52-.24-.69-.44s-.28-.44-.33-.74c-.05-.29,0-.6.16-.92.21-.51.44-1,.71-1.46.26-.46.53-.92.79-1.37.26-.45.51-.91.74-1.36s.42-.92.57-1.42c-1.11.45-2.17,1.06-3.16,1.83-.99.77-1.91,1.62-2.75,2.58-.84.95-1.59,1.97-2.25,3.04-.66,1.08-1.21,2.14-1.64,3.2-.26-.02-.53-.1-.81-.24-.27-.14-.51-.33-.72-.55-.21-.23-.36-.49-.45-.79-.09-.3-.09-.64,0-1.02.19-.83.42-1.66.68-2.49.26-.83.57-1.64.92-2.44s.75-1.54,1.2-2.25.98-1.35,1.59-1.91c.25-.25.48-.39.69-.44.22-.05.43-.03.65.06.22.08.42.21.62.37.2.16.4.34.61.52l-1.56,2.63c.85-.62,1.69-1.26,2.51-1.9.82-.64,1.74-1.17,2.76-1.59.55-.23,1.04-.28,1.49-.17.44.11.85.36,1.23.74.19.19.32.39.4.59.08.21.06.44-.06.71-.47,1.15-1.05,2.21-1.73,3.17-.68.96-1.32,1.94-1.93,2.95-.06.23.06.27.35.14.29-.13.68-.37,1.18-.71.49-.34,1.04-.75,1.66-1.22.61-.47,1.2-.93,1.77-1.39l.74.91Z"/>
    <path d="M70.94,19.5c-.66-.17-1.18-.52-1.56-1.05-.26-.32-.46-.68-.59-1.08-.13-.4-.14-.84-.03-1.33l-1.1,1.08c-.42.42-.9.68-1.44.79-.55.11-1.07.1-1.56-.04-.49-.14-.92-.4-1.3-.78-.38-.38-.6-.85-.68-1.42-.06-.64.05-1.31.31-2.01.26-.7.61-1.37,1.03-2.02s.9-1.26,1.42-1.81c.52-.56,1-1.01,1.43-1.35.45-.36.88-.62,1.27-.79s.78-.26,1.16-.27c.38,0,.75.07,1.13.23.38.16.78.38,1.22.67.26-.15.52-.33.78-.54.25-.21.51-.32.78-.34.26,0,.53.1.79.3.26.2.55.37.85.52-.32.85-.68,1.67-1.09,2.46-.41.79-.79,1.59-1.15,2.38s-.64,1.6-.85,2.41c-.21.81-.26,1.67-.17,2.58.94-.21,1.94-.52,2.97-.93,1.04-.42,2.07-.92,3.09-1.5,1.02-.58,2-1.25,2.93-1.98s1.78-1.53,2.53-2.38c.75-.85,1.38-1.74,1.88-2.68.5-.93.82-1.89.95-2.87.04-.28.14-.49.3-.61.16-.12.48-.06.95.18.72.57,1.16,1.12,1.32,1.67.16.55.15,1.12-.04,1.73-.38,1.23-.98,2.37-1.81,3.41-.83,1.05-1.78,2-2.86,2.85s-2.22,1.59-3.44,2.21-2.38,1.12-3.5,1.5c-.45.15-.93.3-1.42.44-.49.14-.98.26-1.47.35-.49.09-.98.16-1.46.18s-.93,0-1.35-.1l-.23-.06ZM71.16,9.16c-.13-.23-.29-.33-.47-.31-.18.02-.34.08-.5.17-1.21.79-2.21,1.77-3,2.93s-1.34,2.4-1.64,3.72c.42-.19.9-.53,1.44-1.02.55-.49,1.09-1.05,1.63-1.67s1.03-1.27,1.49-1.95c.45-.68.8-1.3,1.05-1.87Z"/>
  </g>
  <g>
    <path d="M88.52,15.47c.84,0,1.46.62,1.46,1.44s-.62,1.44-1.46,1.44-1.42-.64-1.42-1.44.62-1.44,1.42-1.44Z"/>
    <path d="M91.6,10.83v-1.6h1.31v-.9c0-2.44,1.56-3.26,3.28-3.26.78,0,1.42.14,1.97.39l-.33,1.72c-.47-.25-.88-.39-1.48-.39-.86,0-1.38.39-1.38,1.62v.82h2.3v1.6h-2.3v7.41h-2.05v-7.41h-1.31Z"/>
    <path d="M108.47,9.01c1.5,0,2.63.82,2.63,2.75v6.47h-2.05v-5.75c0-1.07-.41-1.74-1.38-1.74s-1.87.66-1.87,2.38v5.11h-2.03v-5.75c0-1.07-.41-1.74-1.4-1.74s-1.85.66-1.85,2.4v5.09h-2.05v-9.01h1.66l.25,1.74c.47-1.38,1.54-1.95,2.79-1.95s2.2.53,2.44,1.99c.47-1.42,1.6-1.99,2.87-1.99Z"/>
  </g>
</svg>